<?xml version="1.0" encoding="utf-8"?>
<!-- Generator: Adobe Illustrator 21.0.0, SVG Export Plug-In . SVG Version: 6.00 Build 0)  -->
<svg version="1.1" id="Layer_1" xmlns="http://www.w3.org/2000/svg" xmlns:xlink="http://www.w3.org/1999/xlink" x="0px" y="0px"
	 viewBox="0 0 512 318.2" style="enable-background:new 0 0 512 318.2;" xml:space="preserve">
<style type="text/css">
	.st0{fill:#0095DB;}
	.st1{fill:#0097D9;}
	.st2{fill:#E40520;}
	.st3{fill:#06326E;}
	.st4{fill:#FFFFFF;}
</style>
<g>
	<g>
		<path class="st0" d="M481.9,5C495.7,5,507,16.3,507,30.1V288c0,13.9-11.3,25.1-25.1,25.1H30.1C16.3,313.2,5,301.9,5,288V30.1
			C5,16.3,16.3,5,30.1,5H481.9 M481.9,0H30.1C13.5,0,0,13.5,0,30.1V288c0,16.6,13.5,30.1,30.1,30.1h451.7
			c16.6,0,30.1-13.5,30.1-30.1V30.1C512,13.5,498.5,0,481.9,0L481.9,0z"/>
	</g>
	<g>
		<path class="st1" d="M257.5,256.9c25.9-23.4,42.2-57.3,42.2-95c0-37.7-16.3-71.6-42.2-95.2c-22.6-20.6-52.8-33.2-85.9-33.2
			c-70.9,0-128.4,57.5-128.4,128.4c0,70.9,57.5,128.2,128.4,128.2C204.7,290.1,234.9,277.5,257.5,256.9L257.5,256.9z"/>
		<path class="st1" d="M257.5,256.9c25.9-23.4,42.2-57.3,42.2-95c0-37.7-16.3-71.6-42.2-95.2V256.9L257.5,256.9z"/>
		<path class="st2" d="M343.7,33.5c-33.2,0-63.3,12.6-86.2,33.2c-4.5,4.3-8.8,8.8-12.8,13.6h25.9c3.5,4.3,6.8,9,9.8,13.6h-45.5
			c-2.8,4.5-5.3,9-7.5,13.6h60.3c2,4.5,4,9,5.5,13.6h-71.1c-1.5,4.5-2.8,9-3.8,13.8H297c1.8,8.5,2.8,17.8,2.8,27.1
			c0,14.1-2.3,27.9-6.5,40.7h-71.1c1.5,4.5,3.3,9,5.3,13.6h60.3c-2.3,4.5-4.5,9.3-7.3,13.6h-45.5c3,4.8,6.3,9.3,9.8,13.6h25.9
			c-4,4.8-8.3,9.3-13.1,13.6c22.9,20.6,53,33.2,86.2,33.2c70.9,0,128.2-57.3,128.2-128.2C471.9,91.1,414.6,33.5,343.7,33.5
			L343.7,33.5z"/>
		<polygon class="st3" points="151.4,197.6 135.4,197.6 144.9,147.6 123.1,197.6 109.5,197.6 106.7,147.9 96.2,197.6 81.6,197.6 
			93.9,132.5 119.3,132.5 119.5,172.7 137.1,132.5 164,132.5 		"/>
		<path class="st3" d="M329.9,196.9c-4.5,1.3-7.8,1.8-11.6,1.8c-8,0-12.6-4-12.6-11.6c0-1.5,0.3-3.3,0.5-4.8l1-5.3l0.8-4l7.3-40.5
			h15.8l-2.3,12.1h8l-2,12.8h-8.3l-4.3,22.1c0,1-0.3,1.8-0.3,2.3c0,2.8,1.8,3.8,5.5,3.8c1.8,0,3.3,0,4.3-0.5L329.9,196.9
			L329.9,196.9z"/>
		<path class="st3" d="M266.5,161.4c0,6.5,3.8,11.3,12.1,14.6c6.8,2.8,7.8,3.5,7.8,6c0,3.3-3,4.8-9.3,4.8c-5,0-9.3-0.8-14.6-2.3
			l-2.3,12.3h0.8l3,0.5c1,0.3,2.3,0.5,4.3,0.5c3.8,0.3,6.8,0.5,8.8,0.5c17.1,0,24.9-5.5,24.9-17.6c0-7.3-3.3-11.6-11.3-14.8
			c-6.8-2.5-7.5-3.3-7.5-5.8c0-2.8,2.8-4.3,7.8-4.3c3.3,0,7.5,0.3,11.8,0.8l2.3-12.1c-4.3-0.8-10.6-1.3-14.3-1.3
			C272.6,143.3,266.3,151.6,266.5,161.4L266.5,161.4z"/>
		<path class="st3" d="M203.2,197.6h-13.3l0.3-5.5c-4,4.3-9.6,6.3-16.8,6.3c-8.5,0-14.6-5.8-14.6-14.3c0-12.8,10.3-20.4,28.1-20.4
			c1.8,0,4,0,6.5,0.2c0.5-1.8,0.5-2.5,0.5-3.3c0-3.5-2.8-5-10.3-5c-4.5,0-9.5,0.8-13.1,1.5l-2.3,0.8l-1.5,0.3l2.3-11.8
			c8-2.3,13.3-3,19.1-3c13.8,0,21.1,5.5,21.1,15.6c0,2.8-0.3,4.5-1.5,10.6l-3.3,18.6l-0.5,3.5l-0.5,2.8l-0.3,1.8L203.2,197.6
			L203.2,197.6z M192.4,174c-1.8-0.3-2.5-0.3-3.8-0.3c-9,0-13.6,2.8-13.6,8c0,3.3,2.3,5.3,5.8,5.3
			C187.4,187.1,192.2,181.8,192.4,174L192.4,174z"/>
		<path class="st3" d="M255.5,196.4c-5.3,1.5-10.6,2.3-16.3,2.3c-17.8,0-27.1-8.3-27.1-23.9c0-18.1,11.8-31.4,27.9-31.4
			c13.3,0,21.6,7.5,21.6,19.1c0,4-0.5,7.8-2,13.1h-31.7c-0.3,1-0.3,1.3-0.3,1.8c0,6,4.8,9.3,14.1,9.3c5.8,0,10.8-1,16.6-3.5
			L255.5,196.4L255.5,196.4z M247.9,164.9c0-1.3,0-2,0-2.8c0-4.3-2.8-6.8-7.5-6.8c-5,0-8.8,3.3-10.3,9.5H247.9L247.9,164.9z"/>
		<path class="st3" d="M425.9,173.5c-2.3,17.6-14.6,25.4-30.9,25.4c-18.1,0-25.4-10.8-25.4-24.4c0-18.6,12.3-31.4,31.4-31.4
			c16.6,0,25.4,10.6,25.4,23.9C426.4,170.2,426.4,170.5,425.9,173.5L425.9,173.5z M409.8,167.2c0-5.5-2.3-10.8-8.8-10.8
			c-8,0-13.3,9.8-13.3,18.1c0,7.3,3.5,12.1,9.3,12.1c3.5,0,10.8-4.8,12.3-13.1C409.5,171.7,409.8,169.5,409.8,167.2L409.8,167.2z"/>
		<path class="st4" d="M427.6,189.6c0-2.3,2-4,4.3-4c2.3,0,4,1.8,4,4s-1.8,4.3-4,4.3S427.6,191.8,427.6,189.6L427.6,189.6z
			 M431.9,192.8c1.8,0,3-1.5,3-3.3s-1.3-3-3-3c-1.8,0-3.3,1.3-3.3,3S430.1,192.8,431.9,192.8L431.9,192.8z M431.4,191.3h-1v-3.5h1.5
			c0.5,0,0.8,0,1,0.3c0.3,0.3,0.5,0.5,0.5,0.8c0,0.5-0.3,1-0.8,1l0.8,1.5h-1l-0.5-1.3h-0.5V191.3L431.4,191.3z M431.4,189.3h0.5
			c0,0,0.3,0,0.5,0c0,0,0-0.3,0-0.5v-0.3c-0.3,0-0.5,0-0.8,0h-0.3L431.4,189.3L431.4,189.3z"/>
		<polygon class="st4" points="155.5,193.8 139.4,193.8 148.9,143.8 127.1,193.8 112.5,193.8 110,144.1 100.4,193.8 85.9,193.8 
			98.2,128.8 123.3,128.8 124.6,169 142.2,128.8 168,128.8 		"/>
		<path class="st4" d="M333.9,193.1c-4.5,1.3-7.8,1.8-11.6,1.8c-8,0-12.6-4-12.6-11.6c0-1.5,0.3-3,0.5-4.8l1-5.3l0.8-4l7.3-40.5
			h15.8l-2.3,12.1h8.3l-2.3,12.8h-8.3l-4,22.1c-0.3,1-0.5,1.8-0.5,2.3c0,2.8,1.8,4,5.5,4c1.8,0,3.3-0.2,4.3-0.5L333.9,193.1
			L333.9,193.1z"/>
		<path class="st3" d="M374.9,156.1l-0.3-1.8l3-8.3c-0.8,0-1,0-1.3-0.3c-0.8,0-1.3-0.3-1.3-0.3c-0.5,0-1,0-1.5,0
			c-5.3,0-9,2.3-14.1,8.5l1.8-9.6h-16.6l-9.8,53h15.8c2.3-12.3,3.3-19.1,4.5-24.9c2-9.5,9-13.8,14.3-12.8c0.5,0,1,0,1.8,0.3l1,0.5
			L374.9,156.1L374.9,156.1z"/>
		<path class="st4" d="M380.4,141.3c-1.3-0.5-1.5-0.5-1.8-0.5c-0.8-0.3-1.3-0.3-1.3-0.5c-0.5,0-1,0-1.8,0c-5.3,0-9,2.3-13.8,8.5
			l1.5-8h-14.6l-9.8,53H355c5.8-32.4,8-38.2,15.8-38.2c0.5,0,1.3,0.3,2,0.3l1.8,0.5L380.4,141.3L380.4,141.3z"/>
		<path class="st4" d="M270.6,157.7c0,6.5,3.8,11.3,12.3,14.6c6.5,2.8,7.5,3.5,7.5,6c0,3.3-3,4.8-9.3,4.8c-4.8,0-9.3-0.8-14.6-2.3
			l-2,12.3h0.8l2.8,0.8c1,0,2.5,0.2,4.3,0.2c3.8,0.5,6.8,0.5,9,0.5c16.8,0,24.9-5.5,24.9-17.6c0-7.3-3.3-11.6-11.6-14.8
			c-6.8-2.5-7.5-3.3-7.5-5.8c0-2.8,2.8-4.3,8-4.3c3,0,7.5,0.3,11.6,0.8l2.3-12.1c-4.3-0.8-10.6-1-14.1-1
			C276.8,139.8,270.6,147.9,270.6,157.7L270.6,157.7z"/>
		<path class="st4" d="M207.2,193.8h-13.1l0.3-5.5c-4,4.3-9.6,6.3-16.8,6.3c-8.5,0-14.6-5.8-14.6-14.3c0-12.8,10.3-20.4,28.1-20.4
			c1.8,0,4,0,6.5,0.3c0.5-1.8,0.5-2.5,0.5-3.3c0-3.5-2.8-4.8-10.3-4.8c-4.5,0-9.6,0.5-13.1,1.3l-2.3,0.8l-1.5,0.3l2.3-11.8
			c8-2,13.1-2.8,19.1-2.8c13.8,0,20.9,5.3,20.9,15.3c0,2.8-0.2,4.8-1.3,10.6l-3.3,18.9l-0.5,3.3l-0.5,2.8l-0.3,1.8L207.2,193.8
			L207.2,193.8z M195.7,170.2c-1.8-0.2-2.5-0.2-3.5-0.2c-9,0-13.6,2.8-13.6,8c0,3.3,2,5.5,5.5,5.5
			C190.7,183.5,195.4,178,195.7,170.2L195.7,170.2z"/>
		<path class="st4" d="M259.8,192.6c-5.5,1.5-10.8,2.3-16.3,2.3c-17.8,0-27.1-8.3-27.1-23.9c0-18.1,11.8-31.4,27.9-31.4
			c13.1,0,21.4,7.5,21.4,19.1c0,4-0.5,7.8-1.8,13.1h-31.9c0,1,0,1.3,0,1.8c0,6,4.5,9.3,13.8,9.3c5.8,0,11.1-1,16.6-3.3L259.8,192.6
			L259.8,192.6z M251.2,161.2c0-1,0-2,0-2.8c0-4.3-2.8-6.8-7.5-6.8c-5,0-8.5,3.5-10.1,9.6L251.2,161.2L251.2,161.2z"/>
		<path class="st4" d="M430.1,169.7c-2.5,17.6-14.8,25.4-31.2,25.4c-17.8,0-25.1-10.8-25.1-24.4c0-18.6,12.3-31.4,31.4-31.4
			c16.6,0,25.4,10.6,25.4,23.9C430.6,166.5,430.6,166.7,430.1,169.7L430.1,169.7z M413.6,162.9c0-5.5-2.3-10.6-8.8-10.6
			c-8,0-13.1,9.5-13.1,18.1c0,7,3.5,11.8,9,11.8c3.5,0,11.1-4.8,12.3-12.8C413.6,167.5,413.6,165.2,413.6,162.9L413.6,162.9z"/>
	</g>
</g>
</svg>
