<?xml version="1.0" encoding="utf-8"?>
<!-- Generator: Adobe Illustrator 21.0.0, SVG Export Plug-In . SVG Version: 6.00 Build 0)  -->
<svg version="1.1" id="Layer_1" xmlns="http://www.w3.org/2000/svg" xmlns:xlink="http://www.w3.org/1999/xlink" x="0px" y="0px"
	 viewBox="0 0 512 318.2" style="enable-background:new 0 0 512 318.2;" xml:space="preserve">
<style type="text/css">
	.st0{fill:#1B557D;}
	.st1{fill:#107DB0;}
</style>
<g>
	<g>
		<path class="st0" d="M481.9,5C495.7,5,507,16.3,507,30.1V288c0,13.9-11.3,25.1-25.1,25.1H30.1C16.3,313.2,5,301.9,5,288V30.1
			C5,16.3,16.3,5,30.1,5H481.9 M481.9,0H30.1C13.5,0,0,13.5,0,30.1V288c0,16.6,13.5,30.1,30.1,30.1h451.7
			c16.6,0,30.1-13.5,30.1-30.1V30.1C512,13.5,498.5,0,481.9,0L481.9,0z"/>
	</g>
	<g>
		<path class="st1" d="M380.9,121.9c-10.8,0-19.3,2.9-25.8,4.2l-2,16.4c3.3-1.6,13.5-4.4,22.1-4.7c8.5-0.3,13.5,1.6,11.8,8.8
			c-25.3,0-42.4,5.2-45.9,21.6c-5,28.1,25.8,27.3,38.1,15.1l-1.5,6.8h22.6l9.8-44.8C414,126.3,396.7,121.6,380.9,121.9z
			 M382.4,167.7c-1.3,6-6,8.6-11.8,8.9c-5,0.3-9.5-4.2-6.3-9.4c2.5-4.4,9.5-5.5,13.8-5.5c1.8,0,3.8,0,5.5,0
			C383.2,163.8,382.9,165.6,382.4,167.7z"/>
		<polygon class="st1" points="429.3,104.2 410.6,190.1 433.6,190.1 452.5,104.2 		"/>
		<path class="st1" d="M323.9,104.4h-42l-18.6,85.6h24.4l6.3-28.4h17.4c17.1,0,31.2-10.4,34.9-28.1
			C350.6,113.6,336,104.4,323.9,104.4z M323.2,133.6c-1.5,6.5-8,11.7-14.3,11.7h-11.3l5-23.4h12.1
			C320.9,121.9,324.7,127.1,323.2,133.6z"/>
		<path class="st0" d="M161,121.9c-10.7,0-19.1,2.9-25.3,4.2l-2,16.4c3-1.6,13.1-4.4,21.6-4.7c8.4-0.3,13.4,1.6,11.9,8.8
			c-25,0-41.9,5.2-45.3,21.6c-5,28.1,25.5,27.3,37.4,15.1l-1.5,6.8h22.6l9.7-44.8C194,126.3,176.6,121.6,161,121.9z M162.8,167.7
			c-1.2,6-6.2,8.6-11.9,8.9c-5,0.3-9.2-4.2-5.9-9.4c2.5-4.4,9.4-5.5,13.4-5.5c2,0,3.7,0,5.7,0C163.5,163.8,163,165.6,162.8,167.7z"
			/>
		<polygon class="st0" points="199.8,123.1 222.4,123.1 226,163 248.1,123.1 271.4,123.1 217.8,218.5 192.6,218.5 209,190.5 		"/>
		<path class="st0" d="M104.9,104.4H62.8l-18.7,85.6h24.7l6-28.4h17.6c16.9,0,31-10.4,34.8-28.1
			C131.7,113.6,117.3,104.4,104.9,104.4z M104.2,133.6c-1.5,6.5-7.8,11.7-14.1,11.7H78.5l5.3-23.4h12.1
			C101.9,121.9,105.9,127.1,104.2,133.6z"/>
		<path class="st0" d="M457.4,115.3v-10.1h-3.8v-1.4h9.1v1.4H459v10.1H457.4z"/>
		<path class="st0" d="M464.3,115.3v-11.5h2.3l2.7,8.1c0.3,0.8,0.4,1.3,0.5,1.7c0.1-0.4,0.3-1,0.6-1.8l2.8-8h2v11.5h-1.5v-9.6
			l-3.4,9.6H469l-3.3-9.8v9.8H464.3z"/>
	</g>
</g>
</svg>
