<?xml version="1.0" encoding="utf-8"?>
<!-- Generator: Adobe Illustrator 21.0.0, SVG Export Plug-In . SVG Version: 6.00 Build 0)  -->
<svg version="1.1" id="Layer_1" xmlns="http://www.w3.org/2000/svg" xmlns:xlink="http://www.w3.org/1999/xlink" x="0px" y="0px"
	 viewBox="0 0 512 318.2" style="enable-background:new 0 0 512 318.2;" xml:space="preserve">
<style type="text/css">
	.st0{fill:#006EB8;}
</style>
<g>
	<g>
		<path class="st0" d="M481.9,5C495.7,5,507,16.3,507,30.1V288c0,13.9-11.3,25.1-25.1,25.1H30.1C16.3,313.2,5,301.9,5,288V30.1
			C5,16.3,16.3,5,30.1,5H481.9 M481.9,0H30.1C13.5,0,0,13.5,0,30.1V288c0,16.6,13.5,30.1,30.1,30.1h451.7
			c16.6,0,30.1-13.5,30.1-30.1V30.1C512,13.5,498.5,0,481.9,0L481.9,0z"/>
	</g>
	<g>
		<g>
			<path class="st0" d="M94.9,103.6c9,0,17.6,2.1,25.2,5.8c1.2,0.6,2.4,1.2,3.6,1.9l-5.3,4.7l-8-8.2l-13.4,12l-8-8.7l-25,22.5
				l16,17.7l-6.3,5.5l15.8,17.7l-6.3,5.5l22.6,25.1l13.4-12.3l11.6,13.2c-2.3,1.8-4.8,3.5-7.6,5c-8.4,4.8-18.1,7.5-28.3,7.5
				c-31.7,0-57.5-25.8-57.5-57.5C37.4,129.4,63.2,103.6,94.9,103.6L94.9,103.6z"/>
			<polygon class="st0" points="84.4,157.4 98.1,145.1 110.4,158.8 96.7,171.1 			"/>
			<polygon class="st0" points="94.1,181.1 107.8,168.8 120.1,182.4 106.4,194.7 			"/>
			<polygon class="st0" points="74.6,134.1 88.3,121.8 100.6,135.4 86.9,147.8 			"/>
			<polygon class="st0" points="99.7,127.5 110,118.2 119.2,128.5 108.9,137.7 			"/>
			<polygon class="st0" points="117.9,169.8 128.2,160.5 137.4,170.8 127.2,180 			"/>
			<polygon class="st0" points="126.9,190.5 137.2,181.2 146.4,191.5 136.2,200.7 			"/>
			<polygon class="st0" points="131.1,143 137.9,136.8 144.1,143.7 137.2,149.8 			"/>
			<polygon class="st0" points="122.3,122.7 129.2,116.5 135.3,123.4 128.5,129.5 			"/>
			<polygon class="st0" points="139.8,163.3 146.6,157.1 152.8,164 146,170.1 			"/>
			<polygon class="st0" points="109.2,148.1 119.4,138.8 128.6,149.1 118.4,158.3 			"/>
		</g>
		<path class="st0" d="M310.8,139l-0.3,0.2l-0.3-0.2c-2.4-2.1-4.9-3-8.1-3c-7.4,0-12.2,5.1-12.2,13.2c0,0,0,36.8,0,37.6
			c0.8,0,6.6,0,7.4,0c0-0.9,0-37.6,0-37.6c0-5.4,3.6-5.8,4.8-5.8c0.9,0,2.1,0.2,3.2,1.1c1.1,1.1,1.6,2.6,1.6,4.7c0,0,0,36.8,0,37.6
			c0.8,0,6.6,0,7.4,0c0-0.9,0-37.6,0-37.6c0-5.4,3.6-5.8,4.8-5.8c0.9,0,2.1,0.2,3.2,1.1c1.1,1.1,1.6,2.6,1.6,4.7c0,0,0,36.8,0,37.6
			c0.8,0,6.6,0,7.4,0c0-0.9,0-37.6,0-37.6c0-4.2-1.3-7.6-3.6-10c-2.1-2-5.1-3.2-8.6-3.2C315.7,136,313,136.9,310.8,139z"/>
		<path class="st0" d="M364.7,153.3c-2.5-2.6-6.5-4.8-12.1-4.8c-5.4,0-9.4,2.3-11.9,4.8c-3.9,4.2-4.6,10.1-4.6,14.7
			c0,4.5,0.8,10.4,4.6,14.6c2.5,2.6,6.5,4.8,11.9,4.8c5.6,0,9.6-2.3,12.1-4.8c3.9-4.2,4.6-10.1,4.6-14.6
			C369.3,163.4,368.5,157.5,364.7,153.3L364.7,153.3z M361.8,169.6c0,3.5,0,7.5-2.7,10.4c-1.1,1.1-3.1,2.5-6.5,2.5
			c-3.2,0-5.3-1.4-6.3-2.5c-2.7-2.9-2.7-6.9-2.7-10.4v-3.3c0-3.5,0-7.5,2.7-10.3c1.1-1.2,3.1-2.6,6.3-2.6c3.4,0,5.5,1.4,6.5,2.6
			c2.7,2.8,2.7,6.8,2.7,10.3V169.6z"/>
		<path class="st0" d="M375.4,149.2l6.2,0.1v3.3c1.8-1.3,3.4-2.3,5.3-2.9c2.3-1,3.9-1.2,6.1-1.2c3.2,0,6.5,0.6,9.2,3.6
			c2.6,3,3.1,6.5,3.1,9.5v25h-6.9v-25.5c0-6.1-3.9-7.7-7.1-7.7c-3.2,0-6.5,1.4-9.2,3.9v29.4h-6.8v-32L375.4,149.2L375.4,149.2z"/>
		<path class="st0" d="M438.9,179.4c-1.3,0.6-2.7,1.2-4.4,1.7c-2,0.6-3.6,1-5.8,1c-3.5,0-6.8-1.2-8.5-3.1c-1.3-1.3-2.7-3.9-2.7-8.4
			v-1h23.2v-1.7c0-6-0.2-10.9-4-14.9c-2.5-2.7-6.2-4.5-10.9-4.5c-5.3,0-9.1,2.3-11.5,4.9c-3.9,4.4-4.3,10.2-4.3,13.9
			c0,4.2,0.6,10.4,4.5,14.7c2.5,2.9,6.9,5.4,13.1,5.4c2.8,0,5.8-0.3,8.8-1.5c1.6-0.6,3.4-1.5,4.6-2.1L438.9,179.4L438.9,179.4z
			 M417.5,163.9c0-4.3,1.4-6.8,2.5-7.9c1.1-1.2,2.8-2.5,5.7-2.5c1.9,0,3.9,0.4,5.3,1.8c2.5,2.4,2.5,5.3,2.5,7.8v1.6h-15.9
			L417.5,163.9L417.5,163.9z"/>
		<path class="st0" d="M477.8,149.3l-14.7,44.2c-0.5,1.9-1.9,5.1-3.5,7c-1.9,2.1-4.5,3.1-7.4,3.1c-2,0-4-0.4-5.9-1.5
			c-1.2-0.8-2.4-1.5-3.1-2.4l3.2-4.1c0.5,0.5,1.3,1.1,1.9,1.5c1.1,0.6,2.4,1,3.5,1c2,0,3.3-1.1,4-1.9c0.7-1,1.5-3.2,2-4.6l0.9-3
			l-15.8-39.2h7.4l9.4,23.5c1,2.2,1.9,5.7,2.1,6.6h0.3c1.2-4.5,1.7-6,2.7-8.8l6.8-21.3L477.8,149.3L477.8,149.3z"/>
		<path class="st0" d="M189.3,184.5l0.2-0.3l0.3,0.3c2.5,2,4.9,3,8.3,3c7.4,0,12.2-5.3,12.2-13.2c0,0,0-36.9,0-37.6
			c-0.8,0-6.8,0-7.5,0c0,0.8,0,37.6,0,37.6c0,5.4-3.6,5.7-4.7,5.7c-1,0-2.3-0.1-3.2-1.1c-1.1-1-1.6-2.6-1.6-4.6c0,0,0-36.9,0-37.6
			c-0.8,0-6.8,0-7.5,0c0,0.8,0,37.6,0,37.6c0,5.4-3.6,5.7-4.8,5.7c-0.9,0-2.1-0.1-3.1-1.1c-1.1-1-1.6-2.6-1.6-4.6c0,0,0-36.9,0-37.6
			c-0.8,0-6.8,0-7.5,0c0,0.8,0,37.6,0,37.6c0,4.1,1.3,7.5,3.6,9.9c2.1,2.1,5.3,3.3,8.6,3.3C184.3,187.5,187,186.5,189.3,184.5z"/>
		<path class="st0" d="M244.7,179.4c-1.2,0.5-2.6,1.2-4.3,1.7c-2,0.6-3.6,1-5.8,1c-3.5,0-6.8-1.2-8.5-3.1c-1.2-1.3-2.6-3.9-2.6-8.4
			v-1h22.9v-1.7c0-6-0.2-10.9-3.9-14.9c-2.5-2.6-6.2-4.4-11-4.4c-5,0-8.9,2.3-11.3,4.8c-4,4.5-4.3,10.3-4.3,13.9
			c0,4.2,0.5,10.4,4.4,14.7c2.6,2.8,6.9,5.4,13.1,5.4c2.8,0,5.7-0.4,8.8-1.6c1.6-0.5,3.3-1.5,4.5-2.1L244.7,179.4L244.7,179.4z
			 M223.6,163.9c0-4.3,1.3-6.6,2.5-7.9c1-1.1,2.7-2.5,5.6-2.5c1.9,0,3.9,0.5,5.3,1.9c2.5,2.3,2.5,5.1,2.5,7.8v1.5h-15.8V163.9z"/>
		<path class="st0" d="M278.4,152.4c-2.7-2.4-6.4-3.8-10.3-3.8c-1.7,0-3.5,0.3-4.8,0.5c-1.1,0.3-2.5,0.9-3.6,1.3v-14.7h-6.8v47.7
			c4,2.4,8.7,4,14,4c4,0,9.3-0.9,13.2-5.9c3.1-4.2,3.8-9.4,3.8-13.7C283.9,163.7,283.5,156.8,278.4,152.4L278.4,152.4z M266.8,153.5
			c2.7,0,5.5,0.9,7.2,2.7c2.4,2.6,2.4,6.4,2.4,9.8v3.2c0,6.3-1.1,8.9-2,10.3c-1.1,1.4-3.3,3.1-7.2,3.1c-1.4,0-3.1-0.4-4.4-0.7
			c-1-0.3-2.1-1-3.1-1.5v-24.5"/>
	</g>
</g>
</svg>
