<?xml version="1.0" encoding="utf-8"?>
<!-- Generator: Adobe Illustrator 21.0.0, SVG Export Plug-In . SVG Version: 6.00 Build 0)  -->
<svg version="1.1" id="Layer_1" xmlns="http://www.w3.org/2000/svg" xmlns:xlink="http://www.w3.org/1999/xlink" x="0px" y="0px"
	 viewBox="0 0 512 318.2" style="enable-background:new 0 0 512 318.2;" xml:space="preserve">
<style type="text/css">
	.st0{fill:#EC7004;}
	.st1{fill:#1D1D1B;}
	.st2{fill:#FFFFFF;}
	.st3{fill:#E52713;}
</style>
<g>
	<g>
		<path class="st0" d="M481.9,5C495.7,5,507,16.3,507,30.1V288c0,13.9-11.3,25.1-25.1,25.1H30.1C16.3,313.2,5,301.9,5,288V30.1
			C5,16.3,16.3,5,30.1,5H481.9 M481.9,0H30.1C13.5,0,0,13.5,0,30.1V288c0,16.6,13.5,30.1,30.1,30.1h451.7
			c16.6,0,30.1-13.5,30.1-30.1V30.1C512,13.5,498.5,0,481.9,0L481.9,0z"/>
	</g>
	<g>
		<polygon class="st1" points="394.9,173.1 360.4,173.1 360.4,140.1 355.1,140.1 355.1,173.1 355,173.1 355,178.1 355.1,178.1 
			355.1,262.3 360.4,262.3 360.4,178.1 394.9,178.1 		"/>
		<path class="st0" d="M468.6,149.9h-3.3v49.3h-65.6c-1.2,0-2.2-1-2.2-2.2c0-1.2,1-2.2,2.2-2.2h61v-50.7c0-0.7-0.6-1.3-1.3-1.3
			c0,0-16.9,1-33.9,2.8c-19.2,2-26.8,3.2-28.7,4.1c-2.1,1-3.6,3.3-3.6,6.4v43.6c0,2.1,1.7,3.8,3.8,3.8h71.6c0.7,0,1.3-0.6,1.3-1.3
			v-51.1C469.9,150.5,469.3,149.9,468.6,149.9z"/>
		<path class="st2" d="M439.4,180.3c0,0,12.3,0,16.5,0c5.8,0,14,1.5,14,10.3c0,0,2-3.6,2-5.2c0-1,0-13.6,0-14.7
			c0-2.3-1.3-8.5-13.1-8.5c-7.9,0-19.4,0-19.4,0l-3.4,6.4c0,0-0.4,2,0.5,4.3C437.4,175.2,439.4,180.3,439.4,180.3z"/>
		<path class="st0" d="M439.4,177.4h19.2c0,0,11.3-0.4,11.3,7.1c0,0,2-0.4,2-2c0-1,0-13.6,0-14.6c0-2.3-1.3-8.6-13.1-8.6
			c-7.9,0-19.4,0-19.4,0l-3.4,9.3L439.4,177.4z"/>
		<polygon class="st0" points="369.6,171.6 362.1,171.6 362.1,166.7 353.4,166.7 353.4,184.6 362.1,184.6 362.1,179.6 369.6,179.6 
					"/>
		<path class="st1" d="M51.7,213.1h-8.1v-20.2h5.9c0.4-0.4,0.8-1,1.3-1.8c0.5-0.7,0.9-1.6,1.4-2.6c1-2.1,2-5,2.8-8.7
			c0.8-3.7,1.2-8.6,1.2-14.7v-10.8h30.3v38.7H93v20.2h-8.1v-13.3H51.7V213.1z M78.2,161.2H64.2c0.1,8.3-0.3,14.7-1.1,19.3
			c-0.8,4.6-2.2,8.7-4.2,12.4h19.3V161.2z"/>
		<path class="st1" d="M140.1,191.9c-1,1.2-2,2.2-3,3.1c-1,0.9-2.1,1.7-3.1,2.3c-2.7,1.6-5.3,2.6-7.8,3c-2.4,0.4-4.1,0.5-5,0.5
			c-7.1,0-12.7-2.3-16.7-7c-4-4.7-6.1-10.1-6.1-16.5c0-6.8,2-12.5,5.9-17.2c3.9-4.7,9.1-7,15.5-7c6.6,0,11.5,2.2,14.7,6.6
			c3.2,4.4,5,9.2,5.4,14.5c0.1,0.5,0.1,1.1,0.1,1.7c0,0.6,0,1.1,0,1.7v0.5v0.6h-32.5v0.2v0.2v0.2v0.2c0,3.6,1.1,6.9,3.2,10
			c2.2,3,5.6,4.6,10.3,4.6c1.6,0,3.1-0.2,4.4-0.5c1.3-0.4,2.6-0.9,3.8-1.6c0.9-0.6,1.8-1.3,2.7-2c0.9-0.8,1.9-1.7,2.9-2.7
			L140.1,191.9z M131,171.6c-0.1-0.7-0.2-1.4-0.3-2.2c-0.2-0.8-0.4-1.7-0.7-2.6c-0.7-1.6-1.9-3.1-3.5-4.5c-1.6-1.4-3.9-2.1-6.9-2.1
			c-3.3,0-5.8,0.8-7.4,2.4c-1.6,1.6-2.7,3.4-3.3,5.3c-0.2,0.6-0.3,1.3-0.4,1.9c-0.1,0.6-0.2,1.2-0.2,1.8H131z"/>
		<polygon class="st1" points="158.2,199.9 150.1,199.9 150.1,154.3 158.2,154.3 158.2,171.7 179.4,171.7 179.4,154.3 187.5,154.3 
			187.5,199.9 179.4,199.9 179.4,178.7 158.2,178.7 		"/>
		<path class="st1" d="M209.1,154.3v13.8h9.6c7.3,0,12.2,1.5,14.7,4.4c2.4,3,3.6,6.6,3.6,10.8c0,4.7-1.2,8.7-3.6,11.9
			c-2.4,3.2-7.7,4.7-16,4.7H201v-45.6L209.1,154.3L209.1,154.3z M218.1,192.8c3.8,0,6.4-0.8,7.6-2.4c1.2-1.6,1.9-3.4,2-5.4v-0.4V184
			c0-2.5-0.6-4.6-1.8-6.3c-1.2-1.8-3.8-2.6-7.8-2.6h-9v17.7L218.1,192.8L218.1,192.8z"/>
		<polygon class="st1" points="254.7,199.9 246.6,199.9 246.6,154.3 275.8,154.3 275.8,161.2 254.7,161.2 		"/>
		<polygon class="st1" points="313.5,161.5 313.5,154.3 321.6,154.3 321.6,199.9 313.5,199.9 313.5,171.6 292.2,193.1 292.2,199.9 
			284.1,199.9 284.1,154.3 292.2,154.3 292.2,183 		"/>
		<rect x="465.3" y="158.3" class="st0" width="4.6" height="34.5"/>
		<path class="st2" d="M444.3,167.9c0,2.4,1.9,4.3,4.3,4.3c2.4,0,4.3-1.9,4.3-4.3c0-2.4-1.9-4.3-4.3-4.3
			C446.2,163.7,444.3,165.6,444.3,167.9z"/>
		<g>
			<g>
				<g>
					<path class="st1" d="M185.3,131.1c-1.6,0-2.2-1.5-2.2-1.5l-7.6-17.2l6.5-12.6c0,0,0.6-1.5,2.1-1.5c0.9,0,1.1,0,1.2,0v-3h-10.4
						v3c0,0,0.3,0,1.5,0c1.6,0,1,1.5,1,1.5l-4,8l-3.5-8c0,0-0.6-1.5,1-1.5c1.2,0,1.3,0,1.3,0v-3h-12v3c0.1,0,0.4,0,1.2,0
						c1.6,0,2.2,1.5,2.2,1.5l6.5,14.7l-7.5,15.1c0,0-0.6,1.5-2.2,1.5c-1.1,0-1,0-1,0v3h9.9v-3c0,0-0.1,0-1.7,0c-1.6,0-1-1.5-1-1.5
						l5.4-10.6l4.7,10.6c0,0,0.6,1.5-1,1.5c-1.6,0-1.5,0-1.5,0v3h12v-3C186.2,131.1,186.4,131.1,185.3,131.1"/>
					<path class="st3" d="M78.8,77.4c1.6,0,2.5,0,2.5,0v-3c0,0-10.5,0-12.5,0c-2,0-16.9-0.4-16.9,14.3c0,1.5,0-0.4,0,1.1
						c0,7.7,5.4,12.9,9.1,13.9c-2.1,0.5-3.5,1.9-4.3,3.1c-1.7,2.7-2.8,6.1-3.5,11.4c-0.7,5.5-0.7,10.8-2.7,12.6
						c-0.8,0.7-2,1-3.3,0.8v2.5c1.2,0.7,3,1.1,4.8,0.7c5.4-1,7.3-5.8,8-9.7c1.2-7.2,0.8-19.1,7.6-21.8l2.4,0v26.2c0,0,0,1.5-1.6,1.5
						c-1.6,0-2.5,0-2.5,0v3h15.3v-3c0,0-1,0-2.5,0c-1.6,0-1.6-1.5-1.6-1.5V78.9C77.2,78.9,77.2,77.4,78.8,77.4L78.8,77.4z
						 M70.1,100.4h-1.6c-2.4,0-9.8,0-9.8-10.7l0.1-4.3c0-7.9,7.1-7.9,9.9-7.9h1.3L70.1,100.4"/>
					<path class="st1" d="M158.6,116.6h2c0-0.7,0-1.4,0-2.1c0-11.3-3.4-20-11.5-20c-8.1,0-11.5,8.7-11.5,20
						c0,11.3,3.4,20.2,11.5,20.2c6.2,0,9.4-5,10.8-12.6h-6c-0.5,5.7-1.5,9.3-4.9,9.3c-4.3,0-5-6.2-5.1-14.8h10.2H158.6L158.6,116.6z
						 M149.2,97.7c4.3,0,5,6,5.1,14.6h-10.2C144.3,103.7,144.9,97.7,149.2,97.7"/>
					<path class="st1" d="M135.6,131.1c-1.6,0-1.6-1.5-1.6-1.5V74.4h-9.3v3h3.1v19c-1.2-1.2-3.1-1.8-5.2-1.8c-8.1,0-12,8.7-12,20
						c0,11.3,3.1,20,11.2,20c2.3,0,4.4-1,5.9-3.6l1.7,3h4.4h3.2v-3C137.2,131.1,137.2,131.1,135.6,131.1L135.6,131.1z M122.3,131.4
						c-4.7,0-4.8-7.1-4.8-16.7c0-9.7,0.1-16.7,4.8-16.7c6.4,0,5.3,7.1,5.3,16.7C127.6,123.5,128.6,131.4,122.3,131.4"/>
					<path class="st1" d="M108.5,131.1c-1.6,0-1.6-1.5-1.6-1.5s0-25.3,0-27.1c0-2.7-1.1-8.1-8.2-8.1c-4.2,0-6,2.9-6.6,3.7l-1.8-3.2
						h-7.5v3H86v31.8c0,0,0,1.5-1.6,1.5c-1.6,0-1.6,0-1.6,0v3h12.4v-3c0,0,0,0-1.6,0c-1.6,0-1.6-1.5-1.6-1.5v-23.2
						c0-2.8,0.3-4.1,0.4-4.6c0.5-1.6,1.8-3.5,4.5-3.5c3.1,0,3.8,2.9,3.8,4.3c0,0.9,0,27,0,27s0,1.5-1.6,1.5c-1.6,0-1.6,0-1.6,0v3
						h12.4v-3C110.1,131.1,110.1,131.1,108.5,131.1"/>
				</g>
			</g>
		</g>
	</g>
</g>
</svg>
